ply
format ascii 1.0
comment Created by meshio v4.3.8, 2021-02-24T11:44:59.848778
element vertex 47
property double x
property double y
property double z
element face 105
property list uint8 int32 vertex_indices
end_header
-12.835361268694859 9.547224263457785 0.0
7.494374979573945 4.679216811829234 0.0
5.029569080549305 2.6770914265939583 0.0
5.5284807054110185 -0.3716758633888607 0.0
7.125838336216574 7.702492244445023 0.0
-6.863984894386868 7.318421154828073 0.0
-9.27539053532908 5.287006819701649 0.0
-12.378648212421563 6.452407593616671 0.0
2.055226368325406 3.8361532618330902 0.0
-3.8173893581778287 6.175284503111585 0.0
3.127330823063029 -2.387413717799207 0.0
4.229305408726885 8.928644352777589 0.0
4.078521999276342 11.627379318602756 0.0
1.6175747561666174 6.952616060258994 0.0
-1.2800004204561586 8.16198940277302 0.0
3.72706096279407 -5.573098225879911 0.0
1.6382979701980638 -7.375857495703099 0.0
2.135924352770978 -10.913092440116841 0.0
5.4184123230096075 -11.752701535456628 0.0
8.52768623260212 -1.4806309714283403 0.0
-8.739816676088779 2.2434184157061754 0.0
-11.062569296100637 0.4448949671621641 0.0
1.2776295633241288 13.228720581738326 0.0
-1.618939380491084 11.362903830704825 0.0
-10.453228475720042 11.515611229217615 0.0
-7.477903799570272 10.49088905685113 0.0
10.465322416198134 3.655917641842723 0.0
11.044933071148295 0.6139224863305744 0.0
0.10334803468997641 -1.290326323028959 0.0
-5.684218117731872 1.0627505760265756 0.0
-3.317447587502744 2.9545547764947497 0.0
-0.41735246307803997 1.8489841361630506 0.0
-5.202180361412705 -2.347494318697602 0.0
-1.8073738584312118 -6.256815503956963 0.0
-2.428865326928151 -3.4535938668277666 0.0
-4.028821347151374 -8.699581541509627 0.0
-1.8566184335152252 -12.482060257019132 0.0
-7.523524432578806 -7.209451437294565 0.0
-7.466192405037223 -3.966239511517887 0.0
-11.440906091348989 -8.616945483035693 0.0
-10.893780823531149 -2.367467000132716 0.0
-13.619066256324318 -5.2560090119033065 0.0
-6.734535233824909 -8.123750030363288 0.0
-5.381773343884635 -8.726914148866365 0.0
9.14690733678295 -4.411067546083591 0.0
6.837998099425467 -6.566628744587763 0.0
7.6121619270805585 -9.380515234173458 0.0
2 37 42
2 42 43
2 43 35
2 35 33
2 33 34
2 34 32
2 32 38
2 38 37
2 33 16
2 16 15
2 15 10
2 10 28
2 28 34
2 34 33
2 28 10
2 10 3
2 3 2
2 2 8
2 8 31
2 31 28
2 20 29
2 29 30
2 30 9
2 9 5
2 5 6
2 6 20
2 30 31
2 31 8
2 8 13
2 13 14
2 14 9
2 9 30
2 14 13
2 13 11
2 11 12
2 12 22
2 22 23
2 23 14
2 17 18
2 18 46
2 46 45
2 45 15
2 15 16
2 16 17
2 15 45
2 45 44
2 44 19
2 19 3
2 3 10
2 10 15
2 8 2
2 2 1
2 1 4
2 4 11
2 11 13
2 13 8
2 39 37
2 37 38
2 38 40
2 40 41
2 41 39
2 7 6
2 6 5
2 5 25
2 25 24
2 24 0
2 0 7
2 36 17
2 17 16
2 16 33
2 33 35
2 35 36
2 3 19
2 19 27
2 27 26
2 26 1
2 1 2
2 2 3
2 40 38
2 38 32
2 32 29
2 29 20
2 20 21
2 21 40
2 32 34
2 34 28
2 28 31
2 31 30
2 30 29
2 29 32
5 39 37 38 40 41
5 36 17 16 33 35
6 33 16 15 10 28 34
6 28 10 3 2 8 31
6 20 29 30 9 5 6
6 30 31 8 13 14 9
6 14 13 11 12 22 23
6 17 18 46 45 15 16
6 15 45 44 19 3 10
6 8 2 1 4 11 13
6 7 6 5 25 24 0
6 3 19 27 26 1 2
6 40 38 32 29 20 21
6 32 34 28 31 30 29
8 37 42 43 35 33 34 32 38
